<?xml version="1.0" standalone="no"?>
<!DOCTYPE svg PUBLIC "-//W3C//DTD SVG 20010904//EN"
 "http://www.w3.org/TR/2001/REC-SVG-20010904/DTD/svg10.dtd">
<svg version="1.0" xmlns="http://www.w3.org/2000/svg"
 width="4096.000000pt" height="4096.000000pt" viewBox="0 0 4096.000000 4096.000000"
 preserveAspectRatio="xMidYMid meet">

<g transform="translate(0.000000,4096.000000) scale(0.100000,-0.100000)"
fill="#000000" stroke="none">
<path d="M19820 40519 c-1481 -46 -2999 -262 -4430 -630 -1714 -441 -3380
-1111 -4915 -1977 -2078 -1172 -3941 -2700 -5494 -4507 -1506 -1752 -2689
-3707 -3536 -5845 -1266 -3197 -1708 -6676 -1285 -10136 347 -2843 1301 -5607
2783 -8069 782 -1298 1770 -2589 2783 -3635 72 -74 142 -148 155 -164 41 -48
583 -571 779 -751 1124 -1031 2350 -1929 3664 -2685 600 -345 1315 -706 1956
-987 676 -297 1612 -649 1810 -681 121 -19 390 -21 490 -3 424 76 695 336 798
765 15 64 17 144 15 856 -4 1050 -20 2860 -26 2866 -3 3 -96 -13 -208 -35
-727 -144 -1298 -198 -1967 -188 -373 5 -552 18 -862 63 -1231 176 -2249 695
-3004 1530 -340 375 -637 844 -801 1264 -101 261 -127 323 -203 495 -229 523
-539 1059 -845 1464 -383 508 -841 939 -1222 1152 -85 47 -289 196 -425 310
-406 340 -518 603 -330 772 120 108 339 171 677 197 486 37 1214 -177 1756
-517 618 -388 1175 -964 1557 -1608 170 -286 366 -566 561 -800 46 -55 167
-183 269 -286 697 -698 1516 -1071 2500 -1139 356 -24 777 3 1180 76 421 76
994 254 1382 428 55 25 57 26 63 73 40 281 132 681 222 958 212 655 520 1186
928 1603 107 109 127 134 110 137 -11 3 -65 9 -120 15 -287 32 -820 111 -1185
176 -2863 511 -4855 1587 -6163 3329 -1018 1357 -1609 3121 -1776 5300 -36
465 -45 721 -46 1250 0 660 22 970 105 1490 240 1494 881 2852 1887 3995 l110
125 -25 65 c-201 529 -329 1159 -373 1829 -13 209 -7 898 10 1076 61 637 164
1169 335 1737 102 339 242 725 267 738 43 24 243 43 449 43 301 0 555 -30 905
-105 1153 -246 2532 -894 4055 -1904 l215 -142 220 59 c1294 349 2782 564
4285 620 347 13 1208 7 1525 -10 1490 -82 2801 -286 4097 -635 l126 -34 184
122 c1791 1195 3396 1890 4663 2017 236 24 569 14 732 -21 l51 -11 62 -167
c285 -764 452 -1486 526 -2272 21 -227 30 -865 15 -1101 -43 -669 -176 -1325
-373 -1839 l-25 -65 114 -130 c1144 -1299 1802 -2852 1958 -4619 69 -784 24
-2009 -110 -2986 -235 -1714 -773 -3167 -1595 -4305 -1319 -1829 -3369 -2943
-6343 -3450 -392 -66 -870 -134 -1202 -170 l-60 -6 113 -112 c715 -703 1151
-1792 1246 -3112 27 -372 28 -575 15 -3055 -19 -3303 -19 -3294 4 -3398 118
-534 508 -817 1087 -789 181 9 275 28 455 90 1194 411 2360 939 3459 1567
2957 1687 5463 4099 7267 6995 1696 2721 2727 5791 3019 8990 126 1386 112
2802 -41 4189 -357 3238 -1481 6348 -3274 9056 -634 957 -1282 1784 -2074
2645 -381 414 -1019 1037 -1481 1446 -1254 1109 -2662 2074 -4153 2845 -3089
1599 -6519 2373 -10027 2263z"/>
</g>
</svg>
